# xmcd CD database file
#
# Track frame offsets:
#	150
#	23875
#	48252
#	71117
#	93802
#	117327
#	140060
#	164220
#	174787
#
# Disc length: 2414 seconds
#
# Revision: 2
# Processed by: cddbd v1.5.1PL0 Copyright (c) Steve Scherf et al.
# Submitted via: CDex 1.51
#
DISCID=7a096c09
DTITLE=THE ALFEE - SINGLE HISTORY VOL.? 1991-1994 Disc2
DYEAR=1995
DGENRE=JPop
TTITLE0=まだ見ぬ君への愛の詩
TTITLE1=愛こそ力 -Power for Love-
TTITLE2=COMPLEX BLUE -愛だけ哀しすぎて-
TTITLE3=冒険者たち
TTITLE4=エルドラド
TTITLE5=The Adventure Begins(English Version)
TTITLE6=El Dorado(English Version)
TTITLE7=THEME OF ROMANCE(COMPLEX BLUE)
TTITLE8=THEME OF SOLITUDE(GUITAR SOLO)
EXTD=YEAR: 1995
EXTT0=
EXTT1=
EXTT2=
EXTT3=
EXTT4=
EXTT5=
EXTT6=
EXTT7=
EXTT8=
PLAYORDER=
